<svg xmlns="http://www.w3.org/2000/svg" shape-rendering="geometricPrecision" text-rendering="geometricPrecision" image-rendering="optimizeQuality" fill-rule="evenodd" clip-rule="evenodd" viewBox="0 0 444 511.77"><path fill-rule="nonzero" d="M234.54 82.8c6.39-9.98 14.88-15.32 23.77-17.17 8.45-1.76 17.1-.24 24.57 3.53 7.36 3.72 13.66 9.67 17.53 16.85 1.45 2.7 2.58 5.55 3.3 8.52 4.34-.09 8.77.66 13.07 2.12 8.17 2.76 16.03 8.16 22.09 15.33 6.09 7.22 10.43 16.28 11.53 26.36.51 4.64.33 9.47-.68 14.41 4.47 4.01 8.18 8.52 10.99 13.33 4.34 7.42 6.61 15.64 6.37 24.02-.25 8.41-3.02 16.84-8.76 24.61-3.61 4.89-8.38 9.5-14.4 13.63.55 12.87-3.25 24.42-9.42 33.35-6.97 10.1-17.06 16.93-27.54 18.78-2.3 8.97-8.26 16.85-15.93 22.35-9.7 6.96-22.37 10.22-33.93 7.05-8.53-2.34-16.3-7.98-21.63-17.92-6.49 10.93-15.38 16.7-24.7 18.64-11.18 2.33-22.75-1.11-31.48-7.91-6.98-5.43-12.21-13.07-14.09-21.72-3.67-.15-7.37-.87-10.98-2.1-7.97-2.7-15.66-7.91-21.66-14.85-6.02-6.96-10.41-15.7-11.79-25.43-.71-5.07-.6-10.38.52-15.83-3.92-3.54-7.27-7.55-9.94-11.88-4.59-7.45-7.12-15.83-7.02-24.45.1-8.68 2.85-17.48 8.85-25.65 3.49-4.75 8.09-9.28 13.91-13.44-.07-1.59-.07-3.17-.02-4.73.48-12.67 5.14-23.82 11.96-32.13 7.06-8.61 16.52-14.27 26.23-15.63l.04-.01a34.2 34.2 0 0 1 1.26-4.19c3.13-8.48 9.55-15.7 17.44-20.3 7.94-4.62 17.47-6.64 26.76-4.71 8.89 1.84 17.38 7.18 23.78 17.16v.01zM89.8 379.4c3.85-1.86 8.48-.24 10.35 3.62a7.75 7.75 0 0 1-3.62 10.34c-6.79 3.29-14.45 4.34-23.01 3.45-4.63-.48-9.52-1.53-14.68-3.11.19 1.99.42 3.97.68 5.94.74 5.6 1.77 11.34 3.06 17.22.45 2.04.05 4.08-.97 5.73-4.35 8.78-6.55 16.13-6.94 22.18-.4 6.35 1.3 11.1 4.63 14.48 3.7 3.76 9.55 6.26 16.91 7.64 11.75 2.22 26.81 1.53 43.19-1.42 15.63-2.81 33.18-7.31 49.34-13.57 13.13-5.09 25.27-11.33 34.54-18.74 9.07-7.24 13.24-19.12 16.8-29.26.74-2.11 1.45-4.14 1.77-5.01l1.04-2.81c4.45-12.26 12.18-33.53 22.25-41.27 3.38-2.62 8.25-1.99 10.86 1.39 2.61 3.39 1.99 8.25-1.4 10.86-6.51 5.01-13.26 23.59-17.15 34.3-.8 2.21-.64 1.8-1.04 2.87-.83 2.27-1.27 3.52-1.71 4.76-4.24 12.11-9.22 26.28-21.77 36.3-10.53 8.42-24.08 15.42-38.61 21.05-3.3 1.28-6.65 2.48-10.03 3.63.14 5.06-.04 10.13-.53 15.2-.68 7.08-1.96 14.03-3.78 20.84-1.11 4.14-5.36 6.6-9.5 5.49-4.14-1.1-6.59-5.36-5.49-9.49 1.64-6.13 2.77-12.23 3.36-18.3.29-2.98.45-6 .48-9.04-9.12 2.49-18.18 4.5-26.7 6.03-18.18 3.27-35.17 3.99-48.77 1.42-10.41-1.96-19.05-5.86-25.1-12.01-6.43-6.53-9.77-15.21-9.06-26.3.49-7.56 2.93-16.27 7.65-26.23-1.06-5.12-1.95-10.43-2.68-15.93-.8-6.12-1.34-12.29-1.58-18.55-.02-.22-.04-.45-.04-.67-.05-.27-.09-.54-.11-.81-1.11-11.72-1.26-23.13-1.42-34.66l-.03-2.68-17.92-1.06-.22-.01c-4.66-.19-8.86-1.53-12.36-3.82-3.4-2.22-6.11-5.27-7.93-8.97-1.73-3.53-2.65-7.62-2.55-12.09.13-6.18 2.2-13.12 6.75-20.2l19.17-39.19c9.39-19.21 9.29-21.75 8.89-31.81-.18-4.53-.41-10.34-.13-19.05.34-10.36 1.5-20.27 3.75-29.59 1.58-6.57 3.71-12.83 6.46-18.73l-34.85-15.2c-3.92-1.71-5.71-6.28-4-10.2.23-.53.52-1.03.85-1.48C90.18 19.35 184.29-11.91 263.87 3.78c46.49 9.17 87.9 34.42 119.26 68.72 31.31 34.26 52.61 77.57 58.91 122.9 10.37 74.59-19.56 154.49-111.76 208.54-.79.47-1.64.77-2.49.93.05 11.32.75 22.29 2.05 32.95 2.58 21.08 7.52 40.84 14.52 59.41 1.51 4.01-.52 8.48-4.52 9.98-4 1.51-8.47-.51-9.98-4.51-7.46-19.79-12.7-40.74-15.43-63-2.71-22.2-2.92-45.78-.33-70.92.44-4.26 4.24-7.36 8.5-6.92 4.25.43 7.35 4.24 6.91 8.49-.58 5.67-1.02 11.26-1.3 16.77 81.34-50.22 107.83-122.33 98.48-189.6-5.86-42.23-25.74-82.61-54.97-114.58-29.18-31.93-67.67-55.42-110.82-63.93C188.54 4.74 102.76 32.85 25.22 134.28l33.11 14.45c.46.17.91.38 1.34.64 3.67 2.21 4.85 6.98 2.64 10.65-4.03 6.7-6.9 14.12-8.83 22.12-1.99 8.23-3.01 17.09-3.32 26.43-.26 8.1-.04 13.64.13 17.95.53 13.14.66 16.46-10.47 39.22l-19.24 39.33c-.17.39-.37.78-.61 1.15-3.04 4.65-4.42 8.89-4.49 12.42-.04 1.9.31 3.57.98 4.93.59 1.19 1.43 2.15 2.46 2.83 1.2.78 2.7 1.26 4.43 1.34.2-.01.41 0 .63.01l22.21 1.31c.71-.24 1.47-.37 2.25-.38.27-.01.53 0 .79.02v-.02l20.46 1.75c4.28.35 7.46 4.1 7.1 8.37a7.758 7.758 0 0 1-8.37 7.1l-.4-.03-11.54-.68.01 1.59c.14 10.07.28 20.05 1.07 30.12 6.48 2.42 12.32 3.96 17.53 4.51 5.71.59 10.61-.02 14.71-2v-.01zm209.4-232.09a8.257 8.257 0 0 0-11.67.1c-3.2 3.25-3.15 8.48.09 11.68 7.08 6.96 10.77 15.95 11.16 25.14.39 9.48-2.69 19.2-9.16 27.22a8.25 8.25 0 0 0 1.26 11.61 8.251 8.251 0 0 0 11.61-1.26c9.04-11.21 13.34-24.85 12.78-38.21-.55-13.28-5.87-26.25-16.07-36.28zm-126.98 0a8.257 8.257 0 0 1 11.67.1c3.2 3.25 3.15 8.48-.09 11.68-7.08 6.96-10.77 15.95-11.16 25.14-.39 9.48 2.69 19.2 9.16 27.22a8.25 8.25 0 0 1-1.26 11.61 8.251 8.251 0 0 1-11.61-1.26c-9.04-11.21-13.34-24.85-12.78-38.21.55-13.28 5.87-26.25 16.07-36.28zm131.03-35.6c-1.42 4.65-3.93 9.34-7.78 13.91-2.93 3.48-8.12 3.92-11.61 1-3.48-2.94-3.93-8.13-1-11.61 6.21-7.38 6.26-15.11 2.99-21.17-2.25-4.19-6-7.7-10.41-9.93-4.3-2.17-9.15-3.07-13.77-2.11-6.15 1.28-12.12 6.05-16.26 15.75.07.43.1.87.1 1.32v170.4c.14.42.25.84.32 1.29 2.38 14.43 8.61 21.38 15.63 23.3 6.48 1.78 13.93-.3 19.88-4.57 5.84-4.18 10-10.32 10.06-16.74.07-7.33-5.32-15.63-19.74-22.99-4.08-2.08-5.69-7.08-3.61-11.16 2.09-4.08 7.09-5.7 11.16-3.61 15.92 8.12 24.29 18.09 27.37 28.16 5.12-1.66 10.08-5.55 13.83-10.98 4.72-6.83 7.4-16 6.12-26.3-.76-3.53.78-7.29 4.06-9.21 6.25-3.65 10.84-7.7 13.98-11.95 3.54-4.8 5.25-9.89 5.39-14.88.15-5.04-1.3-10.14-4.08-14.89-2.54-4.34-6.14-8.34-10.64-11.72a8.59 8.59 0 0 1-3.36-9.89c1.52-4.49 1.93-8.86 1.48-12.97-.71-6.45-3.57-12.35-7.58-17.1-4.05-4.8-9.21-8.38-14.5-10.17-2.74-.92-5.47-1.35-8.03-1.18zM166.01 263.83c3.29-10.35 11.98-20.68 28.37-29.04 4.07-2.09 9.07-.47 11.16 3.61s.47 9.07-3.61 11.16c-15.19 7.76-20.91 16.65-20.89 24.41 0 6.05 3.45 11.73 8.47 15.64 5.09 3.96 11.68 6 17.87 4.71 7.75-1.61 15.22-8.76 19.07-24.36V106.01c-3.88-15.49-11.32-22.6-19.05-24.21-5.1-1.06-10.5.15-15.11 2.84-4.67 2.71-8.43 6.88-10.2 11.69-2.37 6.41-.97 14.31 7.05 21.73 3.34 3.09 3.54 8.3.45 11.64a8.227 8.227 0 0 1-11.64.46c-6.24-5.78-10.09-11.91-12.01-18.02-4.92 1.17-9.78 4.43-13.69 9.2-4.59 5.6-7.74 13.18-8.06 21.87-.09 2.31.03 4.74.38 7.25h-.01a8.57 8.57 0 0 1-3.98 8.46c-6.01 3.7-10.47 7.76-13.57 11.99-3.77 5.14-5.5 10.51-5.57 15.72-.06 5.27 1.56 10.51 4.48 15.25 2.46 3.99 5.84 7.63 9.94 10.69a8.566 8.566 0 0 1 3.27 9.82c-1.63 4.81-1.98 9.48-1.37 13.84.88 6.27 3.77 11.97 7.75 16.57 4 4.62 9.04 8.07 14.21 9.82 2.13.72 4.25 1.14 6.29 1.21z"/></svg>