<?xml version="1.0" standalone="no"?>
<!DOCTYPE svg PUBLIC "-//W3C//DTD SVG 20010904//EN"
 "http://www.w3.org/TR/2001/REC-SVG-20010904/DTD/svg10.dtd">
<svg version="1.0" xmlns="http://www.w3.org/2000/svg"
 width="400.000000pt" height="400.000000pt" viewBox="0 0 400.000000 400.000000"
 preserveAspectRatio="xMidYMid meet">

<g transform="translate(0.000000,400.000000) scale(0.100000,-0.100000)"
fill="#000000" stroke="none">
<path d="M1780 3980 c-112 -24 -173 -41 -185 -51 -5 -5 -15 -9 -23 -9 -32 0
-291 -145 -322 -180 -3 -3 -27 -24 -54 -45 -57 -46 -144 -135 -181 -185 -14
-18 -29 -36 -34 -39 -5 -3 -38 -51 -73 -106 -65 -100 -139 -245 -173 -340 -25
-68 -31 -73 -57 -48 -13 12 -48 34 -78 50 -51 26 -63 28 -170 28 -107 0 -119
-2 -172 -29 -49 -25 -98 -66 -150 -126 -7 -8 -21 -31 -30 -50 -44 -91 -50
-115 -50 -215 0 -116 24 -189 86 -271 40 -53 117 -115 162 -131 125 -45 201
-44 317 2 16 7 17 -5 17 -169 l0 -176 -63 0 c-114 0 -201 -32 -260 -95 -153
-162 -207 -427 -162 -790 17 -136 20 -261 6 -270 -9 -5 -36 -58 -62 -120 -5
-11 -16 -55 -24 -97 -14 -69 -14 -83 0 -146 16 -71 60 -152 81 -152 7 0 14 -5
16 -11 9 -28 146 -1 168 32 3 4 18 11 33 14 24 6 27 5 27 -19 0 -39 21 -117
39 -146 22 -36 72 -80 99 -87 25 -6 81 15 145 54 37 23 39 23 67 6 17 -9 30
-20 30 -24 0 -4 20 -12 45 -17 54 -12 113 1 167 35 48 30 42 30 91 -13 23 -20
111 -44 163 -44 111 0 184 62 228 194 5 15 13 17 46 12 114 -18 487 -26 720
-14 346 17 334 17 338 -7 8 -40 41 -101 69 -125 86 -76 189 -80 320 -12 18 9
33 20 33 24 0 10 27 10 32 1 5 -12 89 -50 124 -56 39 -7 106 12 138 41 28 23
46 28 46 12 0 -5 6 -10 14 -10 8 0 21 -6 28 -13 7 -7 34 -22 61 -32 45 -17 49
-17 86 0 61 27 105 100 114 188 3 26 7 51 10 54 4 3 32 -8 64 -24 81 -42 107
-47 148 -27 74 35 110 114 110 239 0 93 -17 166 -55 235 -11 19 -22 43 -26 53
-3 9 -10 17 -15 17 -12 0 -11 60 1 129 33 187 29 539 -6 656 -27 85 -73 185
-86 185 -5 0 -8 6 -8 13 0 22 -114 122 -155 135 -22 7 -79 16 -128 19 l-87 6
2 171 c3 146 5 170 18 167 8 -1 39 -9 68 -17 64 -17 133 -18 181 -3 162 50
259 152 305 321 33 119 10 240 -68 357 -36 55 -51 70 -108 109 -72 50 -134 65
-241 60 -59 -3 -103 -11 -122 -21 -16 -9 -36 -17 -42 -17 -7 0 -13 -4 -13 -10
0 -5 -5 -10 -10 -10 -6 0 -20 -9 -32 -20 -12 -11 -25 -20 -28 -20 -4 0 -15 19
-24 43 -48 117 -108 241 -118 245 -5 2 -8 8 -8 14 0 14 -72 129 -128 203 -43
56 -186 205 -242 250 -121 99 -313 200 -450 239 -178 50 -381 60 -540 26z
m410 -109 c41 -7 79 -17 85 -22 5 -5 18 -9 28 -9 17 0 38 -8 122 -45 17 -7 37
-16 45 -19 29 -12 112 -63 173 -107 73 -52 247 -219 247 -236 0 -7 4 -13 8
-13 10 0 82 -96 82 -110 0 -5 4 -10 10 -10 5 0 12 -11 16 -25 3 -14 10 -25 15
-25 5 0 9 -5 9 -10 0 -6 18 -42 39 -79 21 -38 42 -83 46 -100 4 -17 10 -31 15
-31 4 0 10 -18 14 -40 3 -22 11 -40 16 -40 6 0 10 -12 10 -27 0 -16 7 -41 15
-57 8 -15 15 -38 15 -51 0 -12 7 -42 15 -65 8 -23 15 -61 15 -84 0 -23 4 -46
9 -51 6 -6 13 -61 17 -122 l7 -113 -50 0 -50 0 -6 -152 c-4 -84 -10 -170 -13
-191 l-7 -38 -15 31 c-17 35 -135 160 -151 160 -6 0 -11 3 -11 8 0 4 -21 19
-47 32 -51 27 -83 51 -83 61 0 4 20 29 45 55 48 52 108 162 126 234 7 25 14
90 16 145 7 150 -24 266 -105 400 -68 111 -164 205 -257 250 -22 11 -42 23
-45 26 -11 13 -136 50 -207 61 -125 20 -269 -14 -377 -89 l-58 -40 -60 40
c-122 82 -274 112 -417 83 -46 -9 -90 -21 -99 -25 -99 -46 -156 -76 -165 -85
-7 -6 -28 -23 -47 -37 -19 -15 -47 -38 -61 -51 -38 -35 -119 -147 -119 -164 0
-8 -4 -14 -10 -14 -5 0 -10 -5 -10 -11 0 -6 -6 -25 -14 -42 -44 -101 -47 -119
-48 -273 0 -121 3 -160 16 -185 9 -18 16 -38 16 -45 0 -15 30 -72 48 -92 6 -7
12 -18 12 -23 0 -10 50 -69 83 -98 29 -26 20 -42 -47 -76 -21 -11 -41 -25 -43
-32 -3 -7 -11 -13 -17 -13 -7 0 -32 -18 -55 -40 -60 -58 -74 -54 -89 25 -6 35
-12 92 -12 125 l0 60 -46 0 -47 0 5 155 c3 99 9 160 16 167 7 7 12 29 12 50 0
21 7 55 15 75 8 19 15 43 15 53 0 10 7 31 15 46 8 16 15 36 15 45 0 9 7 30 15
45 8 16 15 37 15 47 0 9 5 17 10 17 6 0 10 5 10 11 0 31 139 277 163 287 4 2
7 10 7 18 0 8 4 14 8 14 5 0 23 20 40 43 37 52 116 133 180 185 26 20 49 40
50 45 2 4 10 7 18 7 8 0 14 4 14 8 0 5 19 19 43 32 23 13 44 26 47 29 10 12
136 69 190 86 30 10 64 22 75 26 85 35 319 45 475 20z m-488 -502 c29 -6 71
-19 94 -29 44 -20 134 -85 147 -107 13 -22 33 -15 78 27 158 147 417 158 619
25 66 -44 170 -144 170 -164 0 -6 4 -11 8 -11 9 0 57 -91 79 -150 8 -19 20
-75 28 -123 14 -78 14 -99 1 -173 -27 -153 -115 -285 -231 -346 -27 -14 -51
-30 -53 -36 -2 -6 36 -30 85 -53 290 -138 412 -331 322 -514 -24 -51 -127
-165 -148 -165 -6 0 -11 -3 -11 -8 0 -4 -15 -15 -32 -24 -27 -13 -78 -17 -283
-22 -190 -4 -243 -2 -220 6 88 33 235 129 235 155 0 11 -7 13 -32 8 -18 -3
-42 -10 -53 -15 -11 -4 -40 -14 -65 -20 -25 -6 -70 -18 -100 -26 -248 -67
-383 -73 -595 -29 -112 23 -189 41 -205 47 -8 4 -35 11 -60 18 -140 35 -140
35 -120 3 7 -10 26 -28 44 -38 65 -40 131 -75 144 -75 6 0 12 -4 12 -9 0 -5
14 -12 30 -16 52 -11 33 -22 -52 -28 -130 -11 -378 -8 -378 3 0 5 -11 12 -25
16 -14 3 -25 9 -25 13 0 3 -13 12 -29 19 -34 15 -142 121 -162 159 -8 16 -18
31 -24 35 -13 9 -13 207 0 216 6 4 18 23 29 44 19 37 71 95 122 136 50 39 118
82 132 82 6 0 12 4 12 9 0 5 14 12 30 16 17 4 30 11 30 16 0 5 8 9 19 9 10 0
24 6 30 14 13 16 7 22 -56 54 -47 23 -76 46 -107 81 -12 13 -28 31 -36 40 -24
24 -67 111 -81 161 -17 59 -16 253 0 310 11 40 46 115 90 198 19 36 158 172
175 172 8 0 16 4 18 9 5 14 119 64 178 77 70 16 154 17 222 3z m-1155 -439
c35 -18 102 -70 91 -70 -3 0 -19 7 -37 16 -37 19 -197 17 -209 -2 -4 -6 -16
-14 -27 -18 -25 -7 -85 -61 -85 -75 0 -6 -4 -11 -8 -11 -5 0 -17 -19 -28 -42
-24 -55 -27 -203 -4 -219 11 -7 4 -9 -24 -7 -56 4 -80 47 -79 143 0 117 61
222 163 279 60 34 189 37 247 6z m3132 0 c106 -53 174 -167 174 -290 0 -95
-29 -150 -77 -150 -31 0 -32 1 -28 35 2 19 8 35 13 35 12 0 11 107 -1 115 -5
3 -10 17 -10 30 0 13 -7 30 -15 39 -8 8 -15 19 -15 24 0 17 -78 80 -124 102
-54 24 -166 27 -208 6 -23 -12 -28 -12 -28 -2 0 8 8 16 18 20 9 3 35 17 57 30
54 34 185 37 244 6z m-3093 -126 c30 -14 54 -31 55 -37 3 -34 -3 -95 -12 -122
-5 -16 -13 -68 -17 -113 l-7 -84 -40 -14 c-51 -18 -71 -17 -126 1 -85 29 -139
103 -139 190 0 83 40 143 120 182 59 29 99 29 166 -3z m2976 7 c83 -35 128
-101 128 -186 0 -85 -45 -151 -128 -186 -51 -22 -82 -24 -131 -7 -48 16 -44
11 -53 76 -19 138 -28 199 -34 229 -5 27 -2 34 22 50 68 45 130 52 196 24z
m-1412 -1772 c130 -45 196 -85 282 -172 52 -52 118 -155 118 -181 0 -3 -62 -6
-137 -6 -76 0 -163 -4 -193 -9 -31 -5 -221 -13 -423 -17 -348 -7 -367 -6 -367
11 0 22 38 100 65 133 89 109 142 152 241 200 52 25 79 34 169 56 34 8 208 -2
245 -15z m-1540 -318 c0 -23 -10 -36 -49 -65 -57 -42 -113 -103 -143 -158 -24
-43 -26 -43 -175 -31 l-83 6 0 38 c0 34 17 88 41 129 5 8 12 21 16 29 19 41
38 48 157 54 65 4 126 12 135 17 9 5 35 10 59 10 40 0 42 -1 42 -29z m2930 10
c30 -5 85 -10 122 -10 76 -1 93 -13 127 -85 25 -55 46 -145 35 -156 -12 -12
-216 -23 -229 -13 -6 4 -23 28 -38 52 -37 56 -132 151 -152 151 -11 0 -15 11
-15 41 l0 42 48 -7 c26 -3 72 -10 102 -15z m-2430 -82 c121 -31 220 -188 220
-347 0 -73 -2 -73 -116 -62 -54 5 -156 10 -226 10 -79 0 -128 4 -128 10 0 6
-41 10 -102 10 -57 0 -141 3 -187 7 l-83 6 6 49 c4 28 11 57 16 66 5 10 16 33
25 54 71 159 351 255 575 197z m2034 5 c194 -44 285 -117 335 -269 29 -85 28
-105 -6 -106 -16 -1 -98 -5 -183 -10 -85 -5 -240 -13 -345 -18 -104 -5 -212
-12 -239 -16 l-49 -6 5 93 c3 51 10 102 15 113 6 11 20 40 31 65 24 51 65 101
102 121 85 47 214 60 334 33z"/>
<path d="M1475 3304 c-33 -9 -110 -38 -115 -43 -3 -4 -21 -14 -42 -25 -63 -32
-208 -195 -208 -234 0 -5 -7 -23 -15 -38 -8 -16 -15 -39 -15 -51 0 -12 -4 -25
-10 -28 -6 -3 -10 -49 -10 -102 0 -303 215 -495 506 -454 39 6 84 17 100 26
16 8 35 15 42 15 6 0 12 3 12 8 0 4 15 14 32 21 45 20 151 127 178 179 29 55
36 58 57 25 47 -75 100 -137 146 -170 62 -45 112 -73 132 -73 8 0 15 -4 15 -9
0 -5 38 -14 84 -21 157 -22 282 15 381 115 138 138 170 352 82 547 -52 117
-154 222 -262 272 -22 11 -49 24 -60 29 -11 6 -66 12 -122 15 -88 4 -112 1
-173 -19 -38 -12 -70 -26 -70 -31 0 -4 -6 -8 -14 -8 -15 0 -104 -85 -142 -136
l-20 -27 -24 34 c-37 55 -103 111 -172 148 -58 31 -71 34 -168 37 -58 2 -114
1 -125 -2z m229 -121 c23 -9 43 -19 46 -23 3 -3 19 -16 36 -27 69 -48 124
-167 124 -267 0 -94 -37 -195 -100 -274 -70 -88 -143 -133 -253 -158 -56 -13
-77 -14 -120 -4 -120 28 -195 87 -244 189 -23 49 -27 69 -27 153 0 53 5 107
11 120 7 13 20 41 29 63 51 117 176 220 294 245 57 11 151 3 204 -17z m717 17
c194 -36 350 -226 348 -425 0 -105 -29 -180 -96 -251 -46 -49 -99 -77 -178
-93 -52 -11 -69 -10 -123 3 -81 21 -108 34 -157 70 -124 93 -185 210 -186 356
-1 84 23 190 43 190 5 0 8 6 8 13 0 6 15 26 33 43 88 86 187 116 308 94z"/>
<path d="M1589 2843 c-52 -32 -77 -115 -46 -153 37 -48 112 -65 151 -35 28 21
56 67 56 92 0 51 -63 113 -113 113 -12 0 -34 -8 -48 -17z"/>
<path d="M2248 2843 c-68 -42 -75 -131 -14 -178 62 -47 143 -24 166 46 11 33
11 44 -4 76 -18 40 -63 73 -99 73 -12 0 -34 -8 -49 -17z"/>
<path d="M1666 2255 c-67 -67 -33 -198 59 -221 28 -7 78 17 99 48 36 51 27
142 -18 180 -33 28 -109 24 -140 -7z"/>
<path d="M2163 2258 c-67 -74 -53 -170 31 -212 33 -16 41 -17 74 -4 91 34 111
175 31 222 -41 24 -111 21 -136 -6z"/>
</g>
</svg>
