<svg width="256" height="256" viewBox="0 0 256 256" fill="none" xmlns="http://www.w3.org/2000/svg">
<g clip-path="url(#clip0_1_2)">
<rect width="256" height="256" fill="white"/>
<path d="M150.875 139.542C146.708 135.375 140.458 135.375 136.292 139.542L129 146.833L121.708 139.542C117.542 135.375 111.292 135.375 107.125 139.542C102.958 143.708 102.958 149.958 107.125 154.125L114.417 161.417L107.125 168.708C102.958 172.875 102.958 179.125 107.125 183.292C109.208 185.375 112.333 186.417 114.417 186.417C116.5 186.417 119.625 185.375 121.708 183.292L129 176L136.292 183.292C138.375 185.375 141.5 186.417 143.583 186.417C145.667 186.417 148.792 185.375 150.875 183.292C155.042 179.125 155.042 172.875 150.875 168.708L143.583 161.417L150.875 154.125C155.042 149.958 155.042 143.708 150.875 139.542V139.542Z" fill="#E84118"/>
<path d="M208.167 136.417C205.042 129.125 200.875 121.833 194.625 116.625C184.208 106.208 169.625 99.9583 154 99.9583H146.708C145.667 97.875 143.583 96.8333 142.542 95.7917C133.167 84.3333 118.583 78.0833 102.958 78.0833C87.3333 78.0833 72.75 84.3333 62.3333 94.75C51.9167 105.167 45.6667 119.75 45.6667 135.375V138.5C43.5833 140.583 40.4583 141.625 38.375 144.75C29 153.083 24.8333 165.583 24.8333 178.083C24.8333 203.083 45.6667 223.917 71.7083 223.917H186.292C198.792 223.917 210.25 218.708 219.625 210.375C229 202.042 233.167 189.542 233.167 177.042C233.167 159.333 223.792 143.708 208.167 136.417ZM205.042 195.792C199.833 201 193.583 203.083 186.292 203.083H71.7083C57.125 203.083 45.6667 191.625 45.6667 177.042C45.6667 169.75 48.7917 163.5 52.9583 158.292C55.0417 156.208 58.1667 154.125 60.25 153.083C64.4167 151 67.5417 146.833 66.5 141.625V135.375C66.5 126 70.6667 116.625 76.9167 109.333C84.2083 102.042 92.5417 98.9167 102.958 98.9167C113.375 98.9167 121.708 103.083 129 109.333C131.083 111.417 133.167 113.5 134.208 116.625C136.292 120.792 141.5 121.833 145.667 120.792C148.792 119.75 151.917 119.75 155.042 119.75C164.417 119.75 173.792 123.917 181.083 130.167C185.25 134.333 188.375 139.542 190.458 145.792C191.5 148.917 193.583 151 196.708 153.083C206.083 157.25 212.333 166.625 212.333 177.042C212.333 184.333 209.208 190.583 205.042 195.792Z" fill="#0070F3"/>
<path d="M166.333 27C155.785 27 145.474 30.1279 136.703 35.9883C127.932 41.8486 121.096 50.1782 117.06 59.9235C113.023 69.6689 111.967 80.3925 114.025 90.7381C116.083 101.084 121.162 110.587 128.621 118.046C136.08 125.504 145.583 130.584 155.929 132.642C166.274 134.7 176.998 133.644 186.743 129.607C196.489 125.57 204.818 118.734 210.678 109.964C216.539 101.193 219.667 90.8817 219.667 80.3333C219.667 73.3295 218.287 66.3942 215.607 59.9235C212.927 53.4528 208.998 47.5734 204.046 42.621C199.093 37.6685 193.214 33.74 186.743 31.0598C180.272 28.3795 173.337 27 166.333 27V27ZM189.267 67.5867L164.893 99.5867C164.397 100.232 163.758 100.755 163.028 101.116C162.298 101.476 161.495 101.665 160.68 101.667C159.87 101.671 159.069 101.491 158.339 101.14C157.609 100.788 156.969 100.276 156.467 99.64L143.453 83.0533C143.023 82.5 142.705 81.8673 142.519 81.1913C142.333 80.5153 142.281 79.8092 142.368 79.1134C142.455 78.4175 142.678 77.7456 143.024 77.1359C143.37 76.5262 143.833 75.9907 144.387 75.56C145.504 74.6901 146.921 74.2997 148.327 74.4747C149.022 74.5614 149.694 74.7843 150.304 75.1306C150.914 75.477 151.449 75.94 151.88 76.4933L160.573 87.5867L180.733 60.92C181.161 60.3597 181.694 59.889 182.303 59.5349C182.912 59.1807 183.585 58.95 184.283 58.8559C184.982 58.7618 185.692 58.8062 186.373 58.9864C187.054 59.1667 187.693 59.4794 188.253 59.9067C188.814 60.3339 189.284 60.8673 189.638 61.4764C189.993 62.0856 190.223 62.7585 190.317 63.4568C190.412 64.1551 190.367 64.8651 190.187 65.5462C190.007 66.2274 189.694 66.8664 189.267 67.4267V67.5867Z" fill="#4CD137"/>
</g>
<defs>
<clipPath id="clip0_1_2">
<rect width="256" height="256" fill="white"/>
</clipPath>
</defs>
</svg>
